HIERARCHY
ROOT Hips
{
	OFFSET -3.958830 18.904000 13.208200
	CHANNELS 6 Xposition Yposition Zposition Zrotation Yrotation Xrotation 
	JOINT LHipJoint
	{
		OFFSET 0.000000 0.000000 0.000000
		CHANNELS 3 Zrotation Yrotation Xrotation
		JOINT LeftUpLeg
		{
			OFFSET 1.800000 -1.400000 0.085000
			CHANNELS 3 Zrotation Yrotation Xrotation
			JOINT LeftLeg
			{
				OFFSET 2.215000 -6.000000 0.000000
				CHANNELS 3 Zrotation Yrotation Xrotation
				JOINT LeftFoot
				{
					OFFSET 2.500000 -6.900000 0.000000
					CHANNELS 3 Zrotation Yrotation Xrotation
					JOINT LeftToeBase
					{
						OFFSET 0.200000 -0.500000 1.950000
						CHANNELS 3 Zrotation Yrotation Xrotation
						End Site
						{
							OFFSET 0.000000 0.000000 0.000000
						}
					}
				}
			}
		}
	}
	JOINT RHipJoint
	{
		OFFSET 0.000000 0.000000 0.000000
		CHANNELS 3 Zrotation Yrotation Xrotation
		JOINT RightUpLeg
		{
			OFFSET -1.800000 -1.400000 0.085000
			CHANNELS 3 Zrotation Yrotation Xrotation
			JOINT RightLeg
			{
				OFFSET -2.215000 -6.000000 0.000000
				CHANNELS 3 Zrotation Yrotation Xrotation
				JOINT RightFoot
				{
					OFFSET -2.500000 -6.900000 0.000000
					CHANNELS 3 Zrotation Yrotation Xrotation
					JOINT RightToeBase
					{
						OFFSET -0.200000 -0.500000 1.950000
						CHANNELS 3 Zrotation Yrotation Xrotation
						End Site
						{
							OFFSET 0.000000 0.000000 0.000000
						}
					}
				}
			}
		}
	}
	JOINT LowerBack
	{
		OFFSET 0.000000 0.000000 0.000000
		CHANNELS 3 Zrotation Yrotation Xrotation
		JOINT Spine
		{
			OFFSET -0.087000 1.940000 -0.288900
			CHANNELS 3 Zrotation Yrotation Xrotation
			JOINT Spine1
			{
				OFFSET 0.000000 1.950000 0.060000
				CHANNELS 3 Zrotation Yrotation Xrotation
				JOINT Neck
				{
					OFFSET 0.000000 0.000000 0.000000
					CHANNELS 3 Zrotation Yrotation Xrotation
					JOINT Neck1
					{
						OFFSET 0.000000 1.600000 0.340000
						CHANNELS 3 Zrotation Yrotation Xrotation
						JOINT Head
						{
							OFFSET 0.000000 1.667000 -0.240000
							CHANNELS 3 Zrotation Yrotation Xrotation
							End Site
							{
								OFFSET 0.000000 0.000000 0.000000
							}
						}
					}
				}
				JOINT LeftShoulder
				{
					OFFSET 0.000000 0.000000 0.000000
					CHANNELS 3 Zrotation Yrotation Xrotation
					JOINT LeftArm
					{
						OFFSET 2.700000 1.550000 -0.730000
						CHANNELS 3 Zrotation Yrotation Xrotation
						JOINT LeftForeArm
						{
							OFFSET 5.450000 0.000000 0.000000
							CHANNELS 3 Zrotation Yrotation Xrotation
							JOINT LeftHand
							{
								OFFSET 3.450000 0.000000 0.000000
								CHANNELS 3 Zrotation Yrotation Xrotation
								JOINT LeftHandIndex1
								{
									OFFSET 0.750000 0.000000 0.000000
									CHANNELS 3 Zrotation Yrotation Xrotation
									End Site
									{
										OFFSET 0.000000 0.000000 0.000000
									}
								}
							}
						}
					}
				}
				JOINT RightShoulder
				{
					OFFSET 0.000000 0.000000 0.000000
					CHANNELS 3 Zrotation Yrotation Xrotation
					JOINT RightArm
					{
						OFFSET -2.700000 1.550000 -0.730000
						CHANNELS 3 Zrotation Yrotation Xrotation
						JOINT RightForeArm
						{
							OFFSET -5.450000 0.000000 0.000000
							CHANNELS 3 Zrotation Yrotation Xrotation
							JOINT RightHand
							{
								OFFSET -3.450000 0.000000 0.000000
								CHANNELS 3 Zrotation Yrotation Xrotation
								JOINT RightHandIndex1
								{
									OFFSET -0.750000 0.000000 0.000000
									CHANNELS 3 Zrotation Yrotation Xrotation
									End Site
									{
										OFFSET 0.000000 0.000000 0.000000
									}
								}
							}
						}
					}
				}
			}
		}
	}
}
MOTION
Frames: 9
Frame Time: 0.016667
-0.893960 12.895350 -1.047000 -49.869303 -54.513305 -7.307504 -16.533069 9.629484 6.520160 9.709220 -19.255467 -63.539355 43.137366 -11.857552 132.291335 2.754769 19.067115 -1.672564 0.903280 0.614920 1.436520 17.870639 -5.610098 4.004444 -42.755330 13.685654 -23.026384 23.937206 -45.040678 84.606599 -3.469075 -15.993029 -0.987294 0.483680 -0.887180 -0.066490 -1.976927 -4.987383 -10.763174 -4.480061 4.003516 65.621917 -6.994356 6.541813 29.424180 11.144208 6.192577 -21.059576 8.953746 1.208635 71.349962 -10.328510 7.256180 -25.858520 -23.067358 -35.206168 15.115886 -28.338195 5.530092 -3.199872 16.946246 5.817038 -0.212582 -3.313158 2.575701 1.146430 -0.558740 0.603440 -0.436550 -0.829208 38.774528 9.560367 17.677347 10.969432 -29.198603 -68.850552 15.649374 -20.912980 2.851544 -1.900927 -0.270430 0.086600 -0.285130 -0.697850 
-1.003450 12.861120 -1.009910 -48.835401 -57.345401 -7.354261 -16.489975 10.086446 6.896044 17.513168 -18.247922 -62.622147 43.995832 -13.921799 134.454249 2.785683 18.894031 -1.643336 0.996930 0.740670 1.540310 17.917748 -6.445290 2.754837 -38.791411 9.668632 -27.245447 4.051477 -29.005196 92.819574 -3.137892 -14.984812 -0.820354 0.517970 -1.004710 -0.045030 -1.627139 -5.039187 -10.514327 -5.128357 4.977862 62.947507 -4.396261 7.081344 29.369212 9.884777 7.892961 -23.002820 13.275466 -2.049588 77.802019 -11.269400 7.011540 -28.044810 -25.786759 -37.912969 15.452588 -28.169236 7.203040 -5.680190 22.949367 3.940533 -0.988154 -3.293699 2.624178 1.198290 -0.624910 0.728590 -0.446710 4.111010 40.963899 10.991976 30.763736 9.059694 -32.719818 -70.770664 23.431902 -28.008773 2.698390 -1.773273 -0.200920 0.079060 -0.346300 -0.706270 
-1.065070 12.785530 -0.971030 -52.364678 -62.277474 -2.953245 -16.539731 10.347006 7.125134 25.479558 -15.377957 -60.669140 42.651435 -10.752813 137.276078 2.440730 17.889341 -1.497492 1.010240 0.734970 1.628550 17.862917 -6.733256 2.299619 -34.241369 7.024966 -33.114372 -2.886661 -18.647434 86.999923 -2.607355 -13.066503 -0.414373 0.530780 -1.078570 -0.041860 -1.539637 -4.937227 -10.446267 -2.030981 5.103685 61.364951 -5.095827 9.504972 31.371589 10.738947 10.419581 -27.871255 18.305027 -6.694895 82.873956 -13.418990 4.728800 -30.532280 -30.017234 -42.724209 14.682181 -21.968868 7.906414 -11.081272 33.444568 -0.135344 -3.943801 -3.649954 2.640231 1.302990 -0.661440 0.797540 -0.514980 6.009617 46.149674 12.117398 40.896301 5.935594 -37.120002 -66.711293 22.606183 -26.689116 2.800384 -1.782095 -0.229280 0.133780 -0.308670 -0.770040 
-1.058440 12.694640 -0.933290 -57.352036 -67.339017 2.929964 -16.622685 10.355847 7.371516 29.150083 -14.508695 -57.459938 37.758322 3.411580 143.112767 2.004480 16.499153 -1.252221 1.067650 0.782950 1.684490 17.743741 -6.995006 2.151906 -26.642989 4.953110 -39.289136 -10.325797 -8.814431 76.573146 -2.034511 -10.790529 0.132774 0.599600 -1.094770 -0.035660 -1.805336 -4.661374 -10.353948 0.514042 3.934440 60.181003 -3.092478 9.121748 32.502328 9.146933 8.574951 -28.456397 13.601056 -4.621018 86.432879 -12.628460 5.072680 -31.250460 -30.358371 -43.757011 13.378494 -20.438173 3.767026 -16.454841 41.075926 -6.985784 -8.080036 -3.722241 2.782382 1.368590 -0.668770 0.817500 -0.533820 10.212084 47.995134 13.193581 42.553103 6.215443 -33.123809 -56.710929 15.949811 -18.879490 2.721159 -1.809334 -0.266030 0.166330 -0.291250 -0.818020 
-1.189180 12.617180 -0.949290 -44.170597 -68.287039 -7.668428 -16.391499 10.127306 7.374102 31.736228 -19.130109 -54.620907 33.308811 24.013554 150.741481 2.474671 17.765406 -1.489143 1.164690 0.992480 1.702200 18.072508 -6.698166 1.832903 -29.022424 -2.625966 -43.083706 -15.231711 -5.193286 63.308528 -1.596073 -8.902563 0.647323 0.697500 -1.064150 -0.002070 -0.908996 -5.366741 -10.570011 -4.684869 8.694340 55.755476 5.389683 8.237902 37.531097 3.951770 7.977595 -31.107147 17.156041 -8.354153 86.035645 -10.022770 7.955380 -30.197750 -26.680734 -47.787867 12.233302 -14.100816 -1.298124 -21.462632 42.555009 -15.033528 -11.804060 -3.874978 2.936454 1.278250 -0.595820 0.859070 -0.474130 17.501974 50.998633 15.867606 45.113994 1.078060 -25.119892 -41.913758 5.701668 -9.010904 2.746223 -1.835997 -0.191620 0.162790 -0.366490 -0.774560 
-1.161120 12.425670 -1.042670 -32.007900 -74.023103 -18.493121 -16.072826 9.197190 7.567646 37.923583 -17.813277 -51.363366 22.960956 56.915678 153.236477 5.036069 27.031011 -2.766426 1.186450 1.106700 1.600590 18.558539 -6.103750 2.264264 -22.466917 -1.847413 -52.348583 -22.076430 0.158781 54.688541 -1.407196 -7.774393 1.074433 0.714050 -0.951960 0.002530 -0.518776 -5.405116 -11.019999 -8.180673 13.117342 56.327600 11.668846 9.045533 40.897810 -1.664192 5.542527 -33.484739 14.237499 -7.586354 80.984203 -6.093260 9.927270 -27.918090 -18.149517 -49.758030 9.075069 -7.812927 -9.588208 -23.066722 42.483571 -13.110975 -11.499222 -3.865672 3.064015 1.119450 -0.535270 0.826230 -0.351390 21.691310 52.030595 17.897362 40.465310 -0.428654 -16.487238 -29.436435 0.637357 -3.537514 2.973047 -1.770870 -0.113540 0.146190 -0.451220 -0.650820 
-1.182020 12.141380 -0.935480 -15.394157 -79.097191 -33.796527 -15.558516 6.561429 9.306738 48.223825 -18.831919 -48.608634 -7.135568 88.094556 130.041188 6.094562 30.584039 -2.888507 1.022650 0.958590 1.392230 19.218915 -5.170609 2.558571 -20.916488 -2.506688 -60.159758 -18.390048 -1.777168 48.925436 -1.069834 -6.899077 1.408913 0.618360 -0.718160 -0.001740 -0.222051 -5.174598 -11.964608 -10.291025 12.931013 56.989274 12.692273 8.085343 37.763478 -4.512755 4.547001 -30.317395 11.353691 -4.813595 75.017579 -2.288380 11.472130 -21.930370 -13.194968 -47.897372 7.631091 -3.790654 -12.283372 -20.659978 40.428302 -8.237652 -9.205682 -3.981685 3.054911 0.925380 -0.399740 0.653650 -0.288440 22.315706 48.675056 17.220340 39.152347 1.484947 -8.711630 -19.654388 -1.799184 -0.760670 2.834027 -1.517764 -0.127520 0.132270 -0.409420 -0.539170 
-1.251360 11.911600 -0.832560 -2.741159 -80.024373 -45.140295 -15.710771 6.282044 8.930788 50.417828 -15.475618 -49.595963 136.474995 86.121418 -86.760107 3.748475 18.849773 -1.130458 0.994840 1.057850 1.233570 19.101937 -5.085538 3.406656 -19.892731 -2.800471 -67.412321 -12.931448 -4.605846 48.638818 -0.964735 -6.972137 1.424803 0.640130 -0.535160 0.036100 -1.050229 -4.578617 -11.926437 -8.428789 9.977602 55.282614 13.702684 6.305062 36.643458 -7.314898 5.408616 -25.253660 14.030957 -5.423762 67.601770 -0.489690 12.427380 -17.970310 -5.127950 -44.970486 5.525173 -3.346607 -14.616372 -21.606305 43.392503 -16.939925 -12.655280 -3.898316 3.177874 0.649750 -0.245460 0.562810 -0.178610 18.867802 45.058076 16.605017 41.626578 5.484157 -6.186236 -17.998160 -4.251715 -0.298867 2.821232 -1.603126 -0.027400 0.118060 -0.442580 -0.374360 
-1.265380 11.706710 -0.729300 20.372325 -82.332053 -70.243776 -15.972365 11.451849 3.764991 35.482987 -2.969834 -52.226534 -124.927916 89.644575 13.101251 2.533021 12.426267 0.474705 0.866340 0.955760 1.033200 18.335477 -6.540901 5.201123 -14.103596 0.896331 -72.553020 -11.175276 -4.885813 49.087024 -0.862895 -6.792774 1.541763 0.521550 -0.370090 0.075110 -2.138349 -5.081524 -9.952128 -7.780493 8.670325 57.846121 16.768103 4.838485 31.566323 -9.792001 5.016159 -20.570125 10.409453 -3.459824 63.197630 2.389820 11.058640 -15.035930 -2.619455 -39.814735 3.869706 -6.696045 -19.094159 -20.699768 50.605856 -24.412768 -17.892891 -3.731047 3.177957 0.485780 -0.165270 0.460330 -0.126940 21.453990 38.701509 14.887852 39.922208 4.763082 -2.640610 -9.820467 -4.746059 0.265974 2.815488 -1.382129 0.038810 0.074450 -0.400320 -0.241010 
